<svg width="500" height="500" viewBox="0 0 500 500" fill="none" xmlns="http://www.w3.org/2000/svg">
<path fill-rule="evenodd" clip-rule="evenodd" d="M154.392 66.0893L101.211 117.647L122.753 121.547C138.548 124.407 158.03 137.985 195.735 172.425L247.169 219.402L298.024 172.297C339.904 133.504 353.271 124.512 373.765 121.35L398.651 117.508L345.536 66.0195C345.536 66.0195 313.759 29.0631 292.422 14.5315C271.084 -6.23625e-05 256.024 -1.93179e-06 247.169 1.43386e-09C238.313 1.93466e-06 229.622 1.38583e-05 207.578 14.5315C185.535 29.063 154.392 66.0893 154.392 66.0893ZM298.512 67.6529L331.247 97.518L291.066 133.045C268.97 152.581 248.849 168.565 246.361 168.565C243.867 168.565 224.855 153.22 204.114 134.457L166.398 100.355L200.139 69.0653C243.928 28.4701 255.392 28.3016 298.512 67.6529ZM47.1807 170.019C8.10843 208.696 0 221.931 0 247.036C0 272.14 8.10843 285.376 47.1807 324.053C96.2349 372.605 119.807 368.624 189.596 299.977C244.259 246.216 249.645 246.204 304.38 299.779C377.446 371.303 401.163 375.18 452.819 324.053C491.892 285.376 500 272.14 500 247.036C500 221.931 491.892 208.696 452.819 170.019C401.163 118.891 377.446 122.768 304.38 194.292C249.693 247.82 244.283 247.82 189.596 194.292C117.301 123.524 97.5542 120.158 47.1807 170.019ZM156.627 209.254L195.434 247.036L156.627 284.818C134.693 306.173 112.596 322.599 105.801 322.599C99.1928 322.599 80.8193 310.271 64.9639 295.21C25.2169 257.434 25.1265 237.881 64.5301 199.279C80.247 183.887 98.4759 171.472 105.367 171.472C112.693 171.472 133.789 187.02 156.627 209.254ZM435.036 198.861C474.783 236.637 474.874 256.19 435.47 294.792C396.361 333.103 385.849 332.033 337.349 284.818L298.542 247.036L337.349 209.254C385.458 162.416 395.554 161.34 435.036 198.861ZM193.53 322.512C157.223 355.859 137.217 369.908 122.145 372.634L101.211 376.424L154.392 427.982C154.392 427.982 183.735 459.195 207.578 479.54C231.422 499.884 238.313 499.884 247.169 499.884C256.024 499.884 265.566 502.79 292.422 479.54C319.277 456.289 345.536 428.052 345.536 428.052L398.651 376.564L373.765 372.722C353.319 369.565 339.952 360.614 298.801 322.489C271.253 296.977 247.651 276.116 246.349 276.139C245.042 276.163 221.277 297.03 193.53 322.512ZM291.259 361.027L331.247 396.553L298.512 426.418C255.307 465.851 243.952 465.642 199.771 424.616L165.663 392.949L204.247 357.591C225.47 338.142 244.729 322.966 247.048 323.867C249.373 324.768 269.265 341.49 291.259 361.027Z" fill="white"/>
</svg>
